<svg width="96" height="88" viewBox="0 0 96 88" fill="none" xmlns="http://www.w3.org/2000/svg">
<g clip-path="url(#clip0_5_2)">
<path opacity="0.2" d="M92 4V36H64V4H92ZM4 80C4 81.0609 4.42143 82.0783 5.17157 82.8284C5.92172 83.5786 6.93913 84 8 84H28C29.0609 84 30.0783 83.5786 30.8284 82.8284C31.5786 82.0783 32 81.0609 32 80V36H4V80Z" fill="white"/>
<path d="M92 0H4C2.93913 0 1.92172 0.421428 1.17157 1.17157C0.421428 1.92172 0 2.93913 0 4V80C0 82.1217 0.842854 84.1566 2.34315 85.6569C3.84344 87.1571 5.87827 88 8 88H28C30.1217 88 32.1566 87.1571 33.6569 85.6569C35.1571 84.1566 36 82.1217 36 80V56H60V64C60 66.1217 60.8429 68.1566 62.3431 69.6569C63.8434 71.1571 65.8783 72 68 72H88C90.1217 72 92.1566 71.1571 93.6569 69.6569C95.1571 68.1566 96 66.1217 96 64V4C96 2.93913 95.5786 1.92172 94.8284 1.17157C94.0783 0.421428 93.0609 0 92 0ZM88 32H68V8H88V32ZM28 8V32H8V8H28ZM28 80H8V40H28V80ZM36 48V8H60V48H36ZM68 64V40H88V64H68Z" fill="white"/>
</g>
<defs>
<clipPath id="clip0_5_2">
<rect width="96" height="88" fill="white"/>
</clipPath>
</defs>
</svg>
